<svg width="104" height="156" viewBox="0 0 104 156" fill="none" xmlns="http://www.w3.org/2000/svg">
<g clip-path="url(#clip0_600_46)">
<path d="M98.8 0H5.2C2.32812 0 0 2.32812 0 5.2V150.8C0 153.672 2.32812 156 5.2 156H98.8C101.672 156 104 153.672 104 150.8V5.2C104 2.32812 101.672 0 98.8 0Z" fill="#141413" stroke="#2A2A26" stroke-width="1.248"/>
<path d="M3.12012 78H100.88" stroke="#2A2A26" stroke-width="0.832"/>
<path d="M51.9996 89.44C58.3177 89.44 63.4396 84.3181 63.4396 78C63.4396 71.6819 58.3177 66.56 51.9996 66.56C45.6814 66.56 40.5596 71.6819 40.5596 78C40.5596 84.3181 45.6814 89.44 51.9996 89.44Z" stroke="#2A2A26" stroke-width="0.832"/>
<path d="M52 79.248C52.6892 79.248 53.248 78.6893 53.248 78C53.248 77.3108 52.6892 76.752 52 76.752C51.3107 76.752 50.752 77.3108 50.752 78C50.752 78.6893 51.3107 79.248 52 79.248Z" fill="#2A2A26"/>
<path d="M74.8801 0H29.1201V20.8H74.8801V0Z" stroke="#2A2A26" stroke-width="0.832"/>
<path d="M62.3996 0H41.5996V8.32H62.3996V0Z" stroke="#2A2A26" stroke-width="0.832"/>
<path d="M74.8801 135.2H29.1201V156H74.8801V135.2Z" stroke="#2A2A26" stroke-width="0.832"/>
<path d="M62.3996 147.68H41.5996V156H62.3996V147.68Z" stroke="#2A2A26" stroke-width="0.832"/>
<path opacity="0.4" d="M52.0002 152.36C56.8824 152.36 60.8402 148.402 60.8402 143.52C60.8402 138.638 56.8824 134.68 52.0002 134.68C47.118 134.68 43.1602 138.638 43.1602 143.52C43.1602 148.402 47.118 152.36 52.0002 152.36Z" stroke="#2F8A4F" stroke-width="1.248"/>
<path d="M51.9998 148.72C54.8717 148.72 57.1998 146.392 57.1998 143.52C57.1998 140.648 54.8717 138.32 51.9998 138.32C49.1279 138.32 46.7998 140.648 46.7998 143.52C46.7998 146.392 49.1279 148.72 51.9998 148.72Z" fill="#2F8A4F" stroke="#2F8A4F" stroke-width="1.04"/>
<path d="M65.7016 142.88C65.6528 142.731 65.5886 142.597 65.5088 142.479C65.4305 142.359 65.3367 142.257 65.2274 142.173C65.1195 142.089 64.9969 142.025 64.8595 141.98C64.7222 141.936 64.5715 141.914 64.4075 141.914C64.1386 141.914 63.8941 141.983 63.674 142.122C63.4539 142.261 63.2789 142.466 63.1489 142.736C63.0189 143.006 62.9539 143.338 62.9539 143.731C62.9539 144.124 63.0196 144.456 63.1511 144.726C63.2826 144.996 63.4606 145.201 63.6851 145.34C63.9097 145.479 64.1623 145.548 64.4429 145.548C64.7029 145.548 64.9319 145.493 65.1299 145.382C65.3293 145.269 65.4844 145.111 65.5952 144.908C65.7075 144.702 65.7636 144.461 65.7636 144.183L65.932 144.218H64.567V143.731H66.2954V144.218C66.2954 144.592 66.2157 144.917 66.0561 145.193C65.8981 145.47 65.6794 145.684 65.4002 145.836C65.1225 145.987 64.8034 146.062 64.4429 146.062C64.0411 146.062 63.6881 145.968 63.3837 145.778C63.0809 145.589 62.8445 145.32 62.6747 144.972C62.5062 144.623 62.422 144.21 62.422 143.731C62.422 143.372 62.4701 143.049 62.5661 142.763C62.6636 142.474 62.801 142.229 62.9782 142.027C63.1555 141.824 63.3653 141.669 63.6076 141.562C63.8498 141.454 64.1165 141.4 64.4075 141.4C64.6468 141.4 64.8699 141.436 65.0767 141.508C65.285 141.579 65.4704 141.68 65.6329 141.812C65.7969 141.942 65.9335 142.098 66.0428 142.279C66.1522 142.46 66.2275 142.66 66.2689 142.88H65.7016ZM71.0657 143.731C71.0657 144.21 70.9793 144.623 70.8065 144.972C70.6336 145.32 70.3965 145.589 70.0952 145.778C69.7938 145.968 69.4496 146.062 69.0626 146.062C68.6755 146.062 68.3313 145.968 68.03 145.778C67.7286 145.589 67.4915 145.32 67.3186 144.972C67.1458 144.623 67.0594 144.21 67.0594 143.731C67.0594 143.252 67.1458 142.839 67.3186 142.49C67.4915 142.141 67.7286 141.873 68.03 141.683C68.3313 141.494 68.6755 141.4 69.0626 141.4C69.4496 141.4 69.7938 141.494 70.0952 141.683C70.3965 141.873 70.6336 142.141 70.8065 142.49C70.9793 142.839 71.0657 143.252 71.0657 143.731ZM70.5339 143.731C70.5339 143.338 70.4682 143.006 70.3367 142.736C70.2067 142.466 70.0302 142.261 69.8071 142.122C69.5855 141.983 69.3373 141.914 69.0626 141.914C68.7878 141.914 68.5389 141.983 68.3158 142.122C68.0942 142.261 67.9177 142.466 67.7862 142.736C67.6562 143.006 67.5912 143.338 67.5912 143.731C67.5912 144.124 67.6562 144.456 67.7862 144.726C67.9177 144.996 68.0942 145.201 68.3158 145.34C68.5389 145.479 68.7878 145.548 69.0626 145.548C69.3373 145.548 69.5855 145.479 69.8071 145.34C70.0302 145.201 70.2067 144.996 70.3367 144.726C70.4682 144.456 70.5339 144.124 70.5339 143.731ZM71.9898 146V141.462H72.5393V145.513H74.6489V146H71.9898Z" fill="#2F8A4F"/>
<path d="M29.12 121.68C30.8431 121.68 32.24 120.283 32.24 118.56C32.24 116.837 30.8431 115.44 29.12 115.44C27.3969 115.44 26 116.837 26 118.56C26 120.283 27.3969 121.68 29.12 121.68Z" fill="#4A4A45"/>
<path d="M28.8427 128.72H28.2931C28.2606 128.562 28.2037 128.423 28.1225 128.303C28.0427 128.184 27.9452 128.083 27.83 128.002C27.7162 127.919 27.5899 127.857 27.4511 127.816C27.3122 127.775 27.1674 127.754 27.0167 127.754C26.742 127.754 26.4931 127.823 26.27 127.962C26.0484 128.101 25.8719 128.306 25.7404 128.576C25.6104 128.846 25.5454 129.178 25.5454 129.571C25.5454 129.964 25.6104 130.295 25.7404 130.566C25.8719 130.836 26.0484 131.041 26.27 131.18C26.4931 131.318 26.742 131.388 27.0167 131.388C27.1674 131.388 27.3122 131.367 27.4511 131.326C27.5899 131.285 27.7162 131.223 27.83 131.142C27.9452 131.059 28.0427 130.958 28.1225 130.838C28.2037 130.717 28.2606 130.578 28.2931 130.422H28.8427C28.8013 130.654 28.7259 130.861 28.6166 131.044C28.5073 131.228 28.3714 131.383 28.2089 131.512C28.0464 131.639 27.864 131.736 27.6616 131.802C27.4607 131.869 27.2457 131.902 27.0167 131.902C26.6297 131.902 26.2855 131.807 25.9841 131.618C25.6828 131.429 25.4457 131.16 25.2728 130.812C25.1 130.463 25.0136 130.05 25.0136 129.571C25.0136 129.092 25.1 128.679 25.2728 128.33C25.4457 127.981 25.6828 127.712 25.9841 127.523C26.2855 127.334 26.6297 127.24 27.0167 127.24C27.2457 127.24 27.4607 127.273 27.6616 127.339C27.864 127.406 28.0464 127.503 28.2089 127.632C28.3714 127.759 28.5073 127.914 28.6166 128.097C28.7259 128.279 28.8013 128.487 28.8427 128.72ZM29.7307 131.84V127.302H31.3173C31.6334 127.302 31.8941 127.356 32.0995 127.466C32.3048 127.574 32.4577 127.719 32.5582 127.902C32.6586 128.084 32.7089 128.286 32.7089 128.507C32.7089 128.702 32.6741 128.863 32.6047 128.99C32.5368 129.117 32.4466 129.218 32.3344 129.292C32.2236 129.366 32.1032 129.42 31.9732 129.456V129.5C32.112 129.509 32.2516 129.558 32.392 129.646C32.5323 129.735 32.6498 129.862 32.7443 130.027C32.8389 130.193 32.8861 130.395 32.8861 130.635C32.8861 130.862 32.8344 131.067 32.731 131.248C32.6276 131.43 32.4644 131.574 32.2413 131.68C32.0182 131.787 31.728 131.84 31.3705 131.84H29.7307ZM30.2802 131.352H31.3705C31.7294 131.352 31.9843 131.283 32.1349 131.144C32.2871 131.004 32.3632 130.834 32.3632 130.635C32.3632 130.481 32.324 130.339 32.2457 130.209C32.1674 130.078 32.0559 129.973 31.9111 129.894C31.7664 129.815 31.595 129.775 31.397 129.775H30.2802V131.352ZM30.2802 129.296H31.2995C31.465 129.296 31.6142 129.264 31.7472 129.199C31.8816 129.134 31.988 129.042 32.0662 128.924C32.146 128.806 32.1859 128.667 32.1859 128.507C32.1859 128.308 32.1165 128.139 31.9776 128C31.8387 127.859 31.6186 127.789 31.3173 127.789H30.2802V129.296Z" fill="#9C9C95"/>
<path d="M52.12 122.24C53.8431 122.24 55.24 120.843 55.24 119.12C55.24 117.397 53.8431 116 52.12 116C50.3969 116 49 117.397 49 119.12C49 120.843 50.3969 122.24 52.12 122.24Z" fill="#4A4A45"/>
<path d="M52.4022 128.88H51.8527C51.8202 128.722 51.7633 128.583 51.6821 128.463C51.6023 128.344 51.5048 128.243 51.3896 128.162C51.2758 128.079 51.1495 128.017 51.0106 127.976C50.8718 127.935 50.727 127.914 50.5763 127.914C50.3015 127.914 50.0526 127.983 49.8296 128.122C49.608 128.261 49.4314 128.466 49.3 128.736C49.17 129.006 49.105 129.338 49.105 129.731C49.105 130.124 49.17 130.456 49.3 130.726C49.4314 130.996 49.608 131.201 49.8296 131.34C50.0526 131.479 50.3015 131.548 50.5763 131.548C50.727 131.548 50.8718 131.527 51.0106 131.486C51.1495 131.445 51.2758 131.383 51.3896 131.302C51.5048 131.219 51.6023 131.118 51.6821 130.998C51.7633 130.877 51.8202 130.738 51.8527 130.582H52.4022C52.3609 130.814 52.2855 131.021 52.1762 131.204C52.0669 131.388 51.931 131.544 51.7685 131.672C51.606 131.799 51.4235 131.896 51.2211 131.962C51.0202 132.029 50.8053 132.062 50.5763 132.062C50.1893 132.062 49.8451 131.968 49.5437 131.778C49.2423 131.589 49.0052 131.32 48.8324 130.972C48.6596 130.623 48.5731 130.21 48.5731 129.731C48.5731 129.252 48.6596 128.839 48.8324 128.49C49.0052 128.141 49.2423 127.873 49.5437 127.683C49.8451 127.494 50.1893 127.4 50.5763 127.4C50.8053 127.4 51.0202 127.433 51.2211 127.499C51.4235 127.566 51.606 127.663 51.7685 127.792C51.931 127.919 52.0669 128.074 52.1762 128.257C52.2855 128.439 52.3609 128.647 52.4022 128.88ZM53.2902 132V127.462H54.8768C55.193 127.462 55.4537 127.516 55.6591 127.626C55.8644 127.734 56.0173 127.879 56.1177 128.062C56.2182 128.244 56.2684 128.446 56.2684 128.667C56.2684 128.862 56.2337 129.023 56.1643 129.15C56.0963 129.277 56.0062 129.378 55.8939 129.452C55.7831 129.526 55.6627 129.58 55.5327 129.616V129.66C55.6716 129.669 55.8112 129.718 55.9516 129.806C56.0919 129.895 56.2093 130.022 56.3039 130.187C56.3984 130.353 56.4457 130.555 56.4457 130.795C56.4457 131.022 56.394 131.227 56.2906 131.408C56.1872 131.59 56.0239 131.734 55.8009 131.84C55.5778 131.947 55.2875 132 54.93 132H53.2902ZM53.8398 131.513H54.93C55.289 131.513 55.5438 131.443 55.6945 131.304C55.8467 131.164 55.9227 130.994 55.9227 130.795C55.9227 130.641 55.8836 130.499 55.8053 130.369C55.727 130.238 55.6155 130.133 55.4707 130.054C55.3259 129.975 55.1546 129.935 54.9566 129.935H53.8398V131.513ZM53.8398 129.456H54.8591C55.0246 129.456 55.1738 129.424 55.3067 129.359C55.4412 129.294 55.5475 129.202 55.6258 129.084C55.7056 128.966 55.7455 128.827 55.7455 128.667C55.7455 128.468 55.676 128.299 55.5372 128.16C55.3983 128.019 55.1782 127.949 54.8768 127.949H53.8398V129.456Z" fill="#9C9C95"/>
<path d="M74.8798 121.68C76.6029 121.68 77.9998 120.283 77.9998 118.56C77.9998 116.837 76.6029 115.44 74.8798 115.44C73.1566 115.44 71.7598 116.837 71.7598 118.56C71.7598 120.283 73.1566 121.68 74.8798 121.68Z" fill="#4A4A45"/>
<path d="M74.6024 128.72H74.0529C74.0204 128.562 73.9635 128.423 73.8822 128.303C73.8025 128.184 73.705 128.083 73.5897 128.002C73.476 127.919 73.3497 127.857 73.2108 127.816C73.072 127.775 72.9272 127.754 72.7765 127.754C72.5017 127.754 72.2528 127.823 72.0297 127.962C71.8082 128.101 71.6316 128.306 71.5001 128.576C71.3701 128.846 71.3051 129.178 71.3051 129.571C71.3051 129.964 71.3701 130.295 71.5001 130.566C71.6316 130.836 71.8082 131.041 72.0297 131.18C72.2528 131.318 72.5017 131.388 72.7765 131.388C72.9272 131.388 73.072 131.367 73.2108 131.326C73.3497 131.285 73.476 131.223 73.5897 131.142C73.705 131.059 73.8025 130.958 73.8822 130.838C73.9635 130.717 74.0204 130.578 74.0529 130.422H74.6024C74.5611 130.654 74.4857 130.861 74.3764 131.044C74.2671 131.228 74.1312 131.383 73.9687 131.512C73.8062 131.639 73.6237 131.736 73.4213 131.802C73.2204 131.869 73.0055 131.902 72.7765 131.902C72.3895 131.902 72.0453 131.807 71.7439 131.618C71.4425 131.429 71.2054 131.16 71.0326 130.812C70.8597 130.463 70.7733 130.05 70.7733 129.571C70.7733 129.092 70.8597 128.679 71.0326 128.33C71.2054 127.981 71.4425 127.712 71.7439 127.523C72.0453 127.334 72.3895 127.24 72.7765 127.24C73.0055 127.24 73.2204 127.273 73.4213 127.339C73.6237 127.406 73.8062 127.503 73.9687 127.632C74.1312 127.759 74.2671 127.914 74.3764 128.097C74.4857 128.279 74.5611 128.487 74.6024 128.72ZM75.4904 131.84V127.302H77.077C77.3932 127.302 77.6539 127.356 77.8593 127.466C78.0646 127.574 78.2175 127.719 78.3179 127.902C78.4184 128.084 78.4686 128.286 78.4686 128.507C78.4686 128.702 78.4339 128.863 78.3645 128.99C78.2965 129.117 78.2064 129.218 78.0941 129.292C77.9833 129.366 77.8629 129.42 77.7329 129.456V129.5C77.8718 129.509 78.0114 129.558 78.1518 129.646C78.2921 129.735 78.4095 129.862 78.5041 130.027C78.5986 130.193 78.6459 130.395 78.6459 130.635C78.6459 130.862 78.5942 131.067 78.4908 131.248C78.3874 131.43 78.2241 131.574 78.0011 131.68C77.778 131.787 77.4877 131.84 77.1302 131.84H75.4904ZM76.04 131.352H77.1302C77.4892 131.352 77.744 131.283 77.8947 131.144C78.0469 131.004 78.1229 130.834 78.1229 130.635C78.1229 130.481 78.0838 130.339 78.0055 130.209C77.9272 130.078 77.8157 129.973 77.6709 129.894C77.5261 129.815 77.3548 129.775 77.1568 129.775H76.04V131.352ZM76.04 129.296H77.0593C77.2248 129.296 77.374 129.264 77.5069 129.199C77.6414 129.134 77.7477 129.042 77.826 128.924C77.9058 128.806 77.9457 128.667 77.9457 128.507C77.9457 128.308 77.8762 128.139 77.7374 128C77.5985 127.859 77.3784 127.789 77.077 127.789H76.04V129.296Z" fill="#9C9C95"/>
<path d="M14.5595 86.32C16.2826 86.32 17.6795 84.9231 17.6795 83.2C17.6795 81.4769 16.2826 80.08 14.5595 80.08C12.8363 80.08 11.4395 81.4769 11.4395 83.2C11.4395 84.9231 12.8363 86.32 14.5595 86.32Z" fill="#4A4A45"/>
<path d="M9.89873 96.48V91.9418H10.4483V95.9925H12.5578V96.48H9.89873ZM13.4087 91.9418H14.0646L15.6069 95.7088H15.6601L17.2024 91.9418H17.8583V96.48H17.3442V93.032H17.2999L15.8817 96.48H15.3853L13.9671 93.032H13.9228V96.48H13.4087V91.9418Z" fill="#9C9C95"/>
<path d="M39.5204 90.48C41.2435 90.48 42.6404 89.0831 42.6404 87.36C42.6404 85.6369 41.2435 84.24 39.5204 84.24C37.7973 84.24 36.4004 85.6369 36.4004 87.36C36.4004 89.0831 37.7973 90.48 39.5204 90.48Z" fill="#4A4A45"/>
<path d="M38.9761 97.52H38.4265C38.394 97.3619 38.3371 97.2231 38.2559 97.1034C38.1761 96.9838 38.0786 96.8833 37.9634 96.8021C37.8496 96.7193 37.7233 96.6573 37.5845 96.6159C37.4456 96.5746 37.3008 96.5539 37.1501 96.5539C36.8754 96.5539 36.6264 96.6233 36.4034 96.7622C36.1818 96.901 36.0053 97.1056 35.8738 97.376C35.7438 97.6463 35.6788 97.978 35.6788 98.3709C35.6788 98.7639 35.7438 99.0955 35.8738 99.3659C36.0053 99.6362 36.1818 99.8408 36.4034 99.9797C36.6264 100.119 36.8754 100.188 37.1501 100.188C37.3008 100.188 37.4456 100.167 37.5845 100.126C37.7233 100.085 37.8496 100.023 37.9634 99.942C38.0786 99.8593 38.1761 99.7581 38.2559 99.6384C38.3371 99.5173 38.394 99.3784 38.4265 99.2218H38.9761C38.9347 99.4538 38.8593 99.6613 38.75 99.8445C38.6407 100.028 38.5048 100.184 38.3423 100.312C38.1798 100.439 37.9974 100.536 37.795 100.602C37.5941 100.669 37.3791 100.702 37.1501 100.702C36.7631 100.702 36.4189 100.608 36.1175 100.418C35.8162 100.229 35.5791 99.9605 35.4062 99.6118C35.2334 99.2632 35.147 98.8496 35.147 98.3709C35.147 97.8923 35.2334 97.4787 35.4062 97.13C35.5791 96.7814 35.8162 96.5125 36.1175 96.3234C36.4189 96.1343 36.7631 96.0398 37.1501 96.0398C37.3791 96.0398 37.5941 96.073 37.795 96.1395C37.9974 96.206 38.1798 96.3035 38.3423 96.432C38.5048 96.559 38.6407 96.7142 38.75 96.8973C38.8593 97.079 38.9347 97.2866 38.9761 97.52ZM39.8641 96.1018H40.52L42.0623 99.8689H42.1154L43.6577 96.1018H44.3136V100.64H43.7995V97.1921H43.7552L42.337 100.64H41.8407L40.4225 97.1921H40.3782V100.64H39.8641V96.1018Z" fill="#9C9C95"/>
<path d="M64.4804 90.48C66.2035 90.48 67.6004 89.0831 67.6004 87.36C67.6004 85.6369 66.2035 84.24 64.4804 84.24C62.7572 84.24 61.3604 85.6369 61.3604 87.36C61.3604 89.0831 62.7572 90.48 64.4804 90.48Z" fill="#4A4A45"/>
<path d="M63.936 97.52H63.3865C63.354 97.3619 63.2971 97.2231 63.2158 97.1034C63.1361 96.9838 63.0386 96.8833 62.9233 96.8021C62.8096 96.7193 62.6833 96.6573 62.5444 96.6159C62.4056 96.5746 62.2608 96.5539 62.1101 96.5539C61.8353 96.5539 61.5864 96.6233 61.3633 96.7622C61.1418 96.901 60.9652 97.1056 60.8337 97.376C60.7037 97.6463 60.6387 97.978 60.6387 98.3709C60.6387 98.7639 60.7037 99.0955 60.8337 99.3659C60.9652 99.6362 61.1418 99.8408 61.3633 99.9797C61.5864 100.119 61.8353 100.188 62.1101 100.188C62.2608 100.188 62.4056 100.167 62.5444 100.126C62.6833 100.085 62.8096 100.023 62.9233 99.942C63.0386 99.8593 63.1361 99.7581 63.2158 99.6384C63.2971 99.5173 63.354 99.3784 63.3865 99.2218H63.936C63.8946 99.4538 63.8193 99.6613 63.71 99.8445C63.6007 100.028 63.4648 100.184 63.3023 100.312C63.1398 100.439 62.9573 100.536 62.7549 100.602C62.554 100.669 62.3391 100.702 62.1101 100.702C61.7231 100.702 61.3789 100.608 61.0775 100.418C60.7761 100.229 60.539 99.9605 60.3662 99.6118C60.1933 99.2632 60.1069 98.8496 60.1069 98.3709C60.1069 97.8923 60.1933 97.4787 60.3662 97.13C60.539 96.7814 60.7761 96.5125 61.0775 96.3234C61.3789 96.1343 61.7231 96.0398 62.1101 96.0398C62.3391 96.0398 62.554 96.073 62.7549 96.1395C62.9573 96.206 63.1398 96.3035 63.3023 96.432C63.4648 96.559 63.6007 96.7142 63.71 96.8973C63.8193 97.079 63.8946 97.2866 63.936 97.52ZM64.824 96.1018H65.4799L67.0222 99.8689H67.0754L68.6177 96.1018H69.2736V100.64H68.7595V97.1921H68.7152L67.297 100.64H66.8006L65.3824 97.1921H65.3381V100.64H64.824V96.1018Z" fill="#9C9C95"/>
<path d="M89.4403 86.32C91.1634 86.32 92.5603 84.9231 92.5603 83.2C92.5603 81.4769 91.1634 80.08 89.4403 80.08C87.7172 80.08 86.3203 81.4769 86.3203 83.2C86.3203 84.9231 87.7172 86.32 89.4403 86.32Z" fill="#4A4A45"/>
<path d="M85.0184 96.48V91.9418H86.5518C86.9063 91.9418 87.1974 92.0024 87.4249 92.1235C87.6524 92.2432 87.8208 92.4079 87.9301 92.6177C88.0394 92.8274 88.0941 93.066 88.0941 93.3334C88.0941 93.6008 88.0394 93.8379 87.9301 94.0447C87.8208 94.2515 87.6531 94.414 87.4271 94.5322C87.201 94.6489 86.9122 94.7073 86.5606 94.7073H85.3197V94.2109H86.5429C86.7852 94.2109 86.9802 94.1754 87.1279 94.1045C87.2771 94.0336 87.385 93.9332 87.4514 93.8032C87.5194 93.6717 87.5534 93.5151 87.5534 93.3334C87.5534 93.1517 87.5194 92.9929 87.4514 92.857C87.3835 92.7211 87.2749 92.6162 87.1257 92.5423C86.9765 92.467 86.7793 92.4293 86.5341 92.4293H85.5679V96.48H85.0184ZM87.1545 94.4413L88.2713 96.48H87.6331L86.5341 94.4413H87.1545ZM89.0098 91.9418H89.6657L91.208 95.7088H91.2611L92.8034 91.9418H93.4593V96.48H92.9452V93.032H92.9009L91.4827 96.48H90.9864L89.5682 93.032H89.5239V96.48H89.0098V91.9418Z" fill="#9C9C95"/>
<path d="M51.9999 69.68C53.723 69.68 55.1199 68.2831 55.1199 66.56C55.1199 64.8369 53.723 63.44 51.9999 63.44C50.2768 63.44 48.8799 64.8369 48.8799 66.56C48.8799 68.2831 50.2768 69.68 51.9999 69.68Z" fill="#4A4A45"/>
<path d="M47.6513 79.84H47.0752L48.7416 75.3018H49.3088L50.9752 79.84H50.3991L49.0429 76.0197H49.0075L47.6513 79.84ZM47.8641 78.0672H50.1863V78.5547H47.8641V78.0672ZM51.6821 75.3018H52.338L53.8803 79.0688H53.9334L55.4757 75.3018H56.1316V79.84H55.6175V76.392H55.5732L54.155 79.84H53.6587L52.2405 76.392H52.1962V79.84H51.6821V75.3018Z" fill="#9C9C95"/>
<path d="M39.5204 36.4C41.2435 36.4 42.6404 35.0031 42.6404 33.28C42.6404 31.5568 41.2435 30.16 39.5204 30.16C37.7973 30.16 36.4004 31.5568 36.4004 33.28C36.4004 35.0031 37.7973 36.4 39.5204 36.4Z" fill="#4A4A45"/>
<path d="M38.4003 43.1564C38.3737 42.9318 38.2659 42.7575 38.0768 42.6334C37.8877 42.5093 37.6558 42.4473 37.381 42.4473C37.1801 42.4473 37.0043 42.4798 36.8536 42.5448C36.7044 42.6098 36.5877 42.6991 36.5035 42.8129C36.4208 42.9266 36.3794 43.0559 36.3794 43.2007C36.3794 43.3218 36.4082 43.426 36.4658 43.5131C36.5249 43.5988 36.6003 43.6705 36.6918 43.7281C36.7834 43.7842 36.8795 43.8307 36.9799 43.8677C37.0804 43.9031 37.1727 43.9319 37.2569 43.9541L37.7178 44.0782C37.836 44.1092 37.9675 44.152 38.1122 44.2067C38.2585 44.2614 38.3981 44.336 38.531 44.4305C38.6655 44.5236 38.7763 44.6432 38.8634 44.7895C38.9506 44.9357 38.9942 45.1152 38.9942 45.328C38.9942 45.5732 38.9299 45.7948 38.8014 45.9927C38.6743 46.1907 38.4882 46.348 38.243 46.4647C37.9992 46.5814 37.703 46.6398 37.3544 46.6398C37.0294 46.6398 36.748 46.5873 36.5101 46.4824C36.2738 46.3776 36.0876 46.2313 35.9517 46.0437C35.8173 45.8561 35.7412 45.6382 35.7235 45.39H36.2908C36.3055 45.5614 36.3632 45.7032 36.4636 45.8155C36.5655 45.9262 36.6941 46.009 36.8492 46.0636C37.0058 46.1168 37.1742 46.1434 37.3544 46.1434C37.5642 46.1434 37.7525 46.1094 37.9195 46.0415C38.0864 45.972 38.2186 45.876 38.3161 45.7534C38.4136 45.6293 38.4624 45.4845 38.4624 45.3191C38.4624 45.1684 38.4203 45.0458 38.336 44.9512C38.2518 44.8567 38.141 44.7799 38.0037 44.7208C37.8663 44.6617 37.7178 44.61 37.5583 44.5657L36.9999 44.4061C36.6453 44.3042 36.3646 44.1587 36.1578 43.9696C35.951 43.7805 35.8476 43.5331 35.8476 43.2273C35.8476 42.9732 35.9163 42.7516 36.0537 42.5625C36.1925 42.3719 36.3787 42.2242 36.6121 42.1193C36.847 42.013 37.1092 41.9598 37.3987 41.9598C37.6912 41.9598 37.9512 42.0122 38.1787 42.1171C38.4062 42.2205 38.5864 42.3623 38.7194 42.5426C38.8538 42.7228 38.9247 42.9274 38.9321 43.1564H38.4003ZM39.6495 42.5093V42.0218H43.0532V42.5093H41.6261V46.56H41.0766V42.5093H39.6495Z" fill="#9C9C95"/>
<path d="M64.4804 36.4C66.2035 36.4 67.6004 35.0031 67.6004 33.28C67.6004 31.5568 66.2035 30.16 64.4804 30.16C62.7572 30.16 61.3604 31.5568 61.3604 33.28C61.3604 35.0031 62.7572 36.4 64.4804 36.4Z" fill="#4A4A45"/>
<path d="M63.3603 43.1564C63.3337 42.9318 63.2258 42.7575 63.0367 42.6334C62.8477 42.5093 62.6157 42.4473 62.341 42.4473C62.14 42.4473 61.9642 42.4798 61.8136 42.5448C61.6644 42.6098 61.5477 42.6991 61.4635 42.8129C61.3807 42.9266 61.3394 43.0559 61.3394 43.2007C61.3394 43.3218 61.3682 43.426 61.4258 43.5131C61.4849 43.5988 61.5602 43.6705 61.6518 43.7281C61.7434 43.7842 61.8394 43.8307 61.9399 43.8677C62.0403 43.9031 62.1327 43.9319 62.2169 43.9541L62.6778 44.0782C62.796 44.1092 62.9274 44.152 63.0722 44.2067C63.2185 44.2614 63.3581 44.336 63.491 44.4305C63.6254 44.5236 63.7362 44.6432 63.8234 44.7895C63.9106 44.9357 63.9541 45.1152 63.9541 45.328C63.9541 45.5732 63.8899 45.7948 63.7613 45.9927C63.6343 46.1907 63.4482 46.348 63.2029 46.4647C62.9592 46.5814 62.663 46.6398 62.3144 46.6398C61.9894 46.6398 61.7079 46.5873 61.4701 46.4824C61.2337 46.3776 61.0476 46.2313 60.9117 46.0437C60.7773 45.8561 60.7012 45.6382 60.6835 45.39H61.2507C61.2655 45.5614 61.3231 45.7032 61.4236 45.8155C61.5255 45.9262 61.654 46.009 61.8091 46.0636C61.9657 46.1168 62.1341 46.1434 62.3144 46.1434C62.5241 46.1434 62.7125 46.1094 62.8794 46.0415C63.0463 45.972 63.1786 45.876 63.2761 45.7534C63.3736 45.6293 63.4223 45.4845 63.4223 45.3191C63.4223 45.1684 63.3802 45.0458 63.296 44.9512C63.2118 44.8567 63.101 44.7799 62.9636 44.7208C62.8262 44.6617 62.6778 44.61 62.5182 44.5657L61.9598 44.4061C61.6053 44.3042 61.3246 44.1587 61.1178 43.9696C60.911 43.7805 60.8075 43.5331 60.8075 43.2273C60.8075 42.9732 60.8762 42.7516 61.0136 42.5625C61.1525 42.3719 61.3386 42.2242 61.572 42.1193C61.8069 42.013 62.0691 41.9598 62.3587 41.9598C62.6512 41.9598 62.9112 42.0122 63.1387 42.1171C63.3662 42.2205 63.5464 42.3623 63.6794 42.5426C63.8138 42.7228 63.8847 42.9274 63.8921 43.1564H63.3603ZM64.6095 42.5093V42.0218H68.0131V42.5093H66.5861V46.56H66.0365V42.5093H64.6095Z" fill="#9C9C95"/>
</g>
<defs>
<clipPath id="clip0_600_46">
<rect width="104" height="156" fill="white"/>
</clipPath>
</defs>
</svg>
